 http://www.thedesiadda.com/

General

Complete name                    : Tangled.2010.Cam.Lu.avi

Format                           : AVI

Format/Info                      : Audio Video Interleave

File size                        : 695 MiB

Duration                         : 1h 29mn

Overall bit rate                 : 1 082 Kbps

Writing application              : VirtualDubMod 1.5.10.2 (build 2540/release)

Writing library                  : VirtualDub build 32706/release



Video

ID                               : 0

Format                           : MPEG-4 Visual

Format profile                   : Advanced Simple@L4

Format settings, BVOP            : Yes

Format settings, QPel            : No

Format settings, GMC             : No warppoints

Format settings, Matrix          : Default (H.263)

Muxing mode                      : Packed bitstream

Codec ID                         : XVID

Codec ID/Hint                    : XviD

Duration                         : 1h 29mn

Bit rate                         : 944 Kbps

Width                            : 704 pixels

Height                           : 384 pixels

Display aspect ratio             : 16:9

Frame rate                       : 25.000 fps

Color space                      : YUV

Chroma subsampling               : 4:2:0

Bit depth                        : 8 bits

Scan type                        : Progressive

Compression mode                 : Lossy

Bits/(Pixel*Frame)               : 0.140

Stream size                      : 606 MiB (87%)

Writing library                  : XviD 1.2.1 (UTC 2008-12-04)



Audio

ID                               : 1

Format                           : MPEG Audio

Format version                   : Version 1

Format profile                   : Layer 3

Codec ID                         : 55

Codec ID/Hint                    : MP3

Duration                         : 1h 29mn

Bit rate mode                    : Constant

Bit rate                         : 128 Kbps

Channel(s)                       : 2 channels

Sampling rate                    : 44100 KHz

Compression mode                 : Lossy

Stream size                      : 82.2 MiB (12%)

Alignment                        : Aligned on interleaves

Interleave, duration             : 40 ms (1.00 video frame)

Interleave, preload duration     : 504 ms

Writing library                  : LAME3.98r

Encoding settings                : -m s -V 4 -q 2 -lowpass 17 -b 128





Notes



video from ELEKTRI4KA thx



Well video was good just have some dark sceans but good for now.

Didnt do much just ran thru couple filters nothing big.



Audio is Lu, also on other note stop bitching about audio its a cam , its alot better

then used too be, itleast you can hear it understand it.I wouldnt bitch to much about

cam audio (NOT LIKE ANYONE PUTTING OUT LINE AUDIO TOO MUCH THESE DAYS!)



Watch it or not, up too u!

Alot of others will watch it if u dont.
 
http://unleashthe.net/bitbucket/jason_Tangled.jpg